<?xml version="1.0" encoding="UTF-8" standalone="no"?>
<!DOCTYPE svg PUBLIC "-//W3C//DTD SVG 1.1//EN"
 "http://www.w3.org/Graphics/SVG/1.1/DTD/svg11.dtd">
<!-- Generated by graphviz version 9.0.0 (20230911.1827)
 -->
<!-- Title: pastafarianism Pages: 1 -->
<svg width="1197pt" height="459pt"
 viewBox="0.00 0.00 1196.70 458.53" xmlns="http://www.w3.org/2000/svg" xmlns:xlink="http://www.w3.org/1999/xlink">
<g id="graph0" class="graph" transform="scale(1 1) rotate(0) translate(4 454.53)">
<title>pastafarianism</title>
<polygon fill="white" stroke="none" points="-4,4 -4,-454.53 1192.7,-454.53 1192.7,4 -4,4"/>
<!-- 1482186c&#45;09c8&#45;46e1&#45;a731&#45;95eaa2aae11e -->
<g id="node1" class="node">
<title>1482186c&#45;09c8&#45;46e1&#45;a731&#45;95eaa2aae11e</title>
<polygon fill="#b0ffff" stroke="black" points="696.7,-450.53 671.7,-450.53 671.7,-419.28 696.7,-419.28 696.7,-450.53"/>
<text text-anchor="middle" x="684.2" y="-427.53" font-family="Times New Roman,serif" font-size="20.00">?</text>
</g>
<!-- ad9a7227&#45;7ca6&#45;45ac&#45;8d35&#45;3c1d50c1d608 -->
<g id="node2" class="node">
<title>ad9a7227&#45;7ca6&#45;45ac&#45;8d35&#45;3c1d50c1d608</title>
<ellipse fill="#ffff80" stroke="black" cx="508.2" cy="-361.18" rx="139.65" ry="22.1"/>
<text text-anchor="middle" x="508.2" y="-353.8" font-family="Times New Roman,serif" font-size="20.00">Low(ACTemperature)</text>
</g>
<!-- 1482186c&#45;09c8&#45;46e1&#45;a731&#45;95eaa2aae11e&#45;&gt;ad9a7227&#45;7ca6&#45;45ac&#45;8d35&#45;3c1d50c1d608 -->
<g id="edge1" class="edge">
<title>1482186c&#45;09c8&#45;46e1&#45;a731&#45;95eaa2aae11e&#45;&gt;ad9a7227&#45;7ca6&#45;45ac&#45;8d35&#45;3c1d50c1d608</title>
<path fill="none" stroke="black" d="M671.26,-428.63C649.63,-419.82 604.87,-401.57 567.7,-386.43"/>
<polygon fill="black" stroke="black" points="569.43,-383.35 558.85,-382.82 566.79,-389.83 569.43,-383.35"/>
</g>
<!-- 39236f65&#45;f97a&#45;4807&#45;9197&#45;55a006b22bc5 -->
<g id="node3" class="node">
<title>39236f65&#45;f97a&#45;4807&#45;9197&#45;55a006b22bc5</title>
<polygon fill="#ff8080" stroke="black" points="702.32,-376.8 666.07,-376.8 666.07,-345.55 702.32,-345.55 702.32,-376.8"/>
<text text-anchor="middle" x="684.2" y="-353.8" font-family="Times New Roman,serif" font-size="20.00">→</text>
</g>
<!-- 1482186c&#45;09c8&#45;46e1&#45;a731&#45;95eaa2aae11e&#45;&gt;39236f65&#45;f97a&#45;4807&#45;9197&#45;55a006b22bc5 -->
<g id="edge2" class="edge">
<title>1482186c&#45;09c8&#45;46e1&#45;a731&#45;95eaa2aae11e&#45;&gt;39236f65&#45;f97a&#45;4807&#45;9197&#45;55a006b22bc5</title>
<path fill="none" stroke="black" d="M684.2,-419.04C684.2,-410.19 684.2,-398.71 684.2,-388.39"/>
<polygon fill="black" stroke="black" points="687.7,-388.53 684.2,-378.53 680.7,-388.54 687.7,-388.53"/>
</g>
<!-- 4cfb5477&#45;a90b&#45;4577&#45;b25d&#45;fe21ea0e0966 -->
<g id="node14" class="node">
<title>4cfb5477&#45;a90b&#45;4577&#45;b25d&#45;fe21ea0e0966</title>
<polygon fill="#ff8080" stroke="black" points="867.32,-376.8 831.07,-376.8 831.07,-345.55 867.32,-345.55 867.32,-376.8"/>
<text text-anchor="middle" x="849.2" y="-353.8" font-family="Times New Roman,serif" font-size="20.00">→</text>
</g>
<!-- 1482186c&#45;09c8&#45;46e1&#45;a731&#45;95eaa2aae11e&#45;&gt;4cfb5477&#45;a90b&#45;4577&#45;b25d&#45;fe21ea0e0966 -->
<g id="edge13" class="edge">
<title>1482186c&#45;09c8&#45;46e1&#45;a731&#45;95eaa2aae11e&#45;&gt;4cfb5477&#45;a90b&#45;4577&#45;b25d&#45;fe21ea0e0966</title>
<path fill="none" stroke="black" d="M697.15,-428.27C723.51,-416.81 784.01,-390.52 820.24,-374.77"/>
<polygon fill="black" stroke="black" points="821.48,-378.04 829.26,-370.85 818.69,-371.62 821.48,-378.04"/>
</g>
<!-- 478f835e&#45;acf3&#45;47a0&#45;ba1e&#45;390c1db302d7 -->
<g id="node4" class="node">
<title>478f835e&#45;acf3&#45;47a0&#45;ba1e&#45;390c1db302d7</title>
<ellipse fill="#ffff80" stroke="black" cx="576.2" cy="-271.83" rx="77.6" ry="22.1"/>
<text text-anchor="middle" x="576.2" y="-264.46" font-family="Times New Roman,serif" font-size="20.00">Active(AC)</text>
</g>
<!-- 39236f65&#45;f97a&#45;4807&#45;9197&#45;55a006b22bc5&#45;&gt;478f835e&#45;acf3&#45;47a0&#45;ba1e&#45;390c1db302d7 -->
<g id="edge3" class="edge">
<title>39236f65&#45;f97a&#45;4807&#45;9197&#45;55a006b22bc5&#45;&gt;478f835e&#45;acf3&#45;47a0&#45;ba1e&#45;390c1db302d7</title>
<path fill="none" stroke="black" d="M665.88,-345.36C650.57,-332.98 628.34,-315 609.84,-300.04"/>
<polygon fill="black" stroke="black" points="612.26,-297.49 602.28,-293.93 607.85,-302.94 612.26,-297.49"/>
</g>
<!-- cab4b5e9&#45;9d6f&#45;4763&#45;b815&#45;1de04a50826e -->
<g id="node5" class="node">
<title>cab4b5e9&#45;9d6f&#45;4763&#45;b815&#45;1de04a50826e</title>
<polygon fill="#b0ffff" stroke="black" points="696.7,-287.46 671.7,-287.46 671.7,-256.21 696.7,-256.21 696.7,-287.46"/>
<text text-anchor="middle" x="684.2" y="-264.46" font-family="Times New Roman,serif" font-size="20.00">?</text>
</g>
<!-- 39236f65&#45;f97a&#45;4807&#45;9197&#45;55a006b22bc5&#45;&gt;cab4b5e9&#45;9d6f&#45;4763&#45;b815&#45;1de04a50826e -->
<g id="edge4" class="edge">
<title>39236f65&#45;f97a&#45;4807&#45;9197&#45;55a006b22bc5&#45;&gt;cab4b5e9&#45;9d6f&#45;4763&#45;b815&#45;1de04a50826e</title>
<path fill="none" stroke="black" d="M684.2,-345.36C684.2,-332.69 684.2,-314.15 684.2,-298.98"/>
<polygon fill="black" stroke="black" points="687.7,-299.24 684.2,-289.24 680.7,-299.24 687.7,-299.24"/>
</g>
<!-- f2e5e248&#45;389d&#45;4e44&#45;9a42&#45;ffbbcf66070c -->
<g id="node6" class="node">
<title>f2e5e248&#45;389d&#45;4e44&#45;9a42&#45;ffbbcf66070c</title>
<polygon fill="#b0ffff" stroke="black" points="428.7,-198.11 403.7,-198.11 403.7,-166.86 428.7,-166.86 428.7,-198.11"/>
<text text-anchor="middle" x="416.2" y="-175.11" font-family="Times New Roman,serif" font-size="20.00">?</text>
</g>
<!-- cab4b5e9&#45;9d6f&#45;4763&#45;b815&#45;1de04a50826e&#45;&gt;f2e5e248&#45;389d&#45;4e44&#45;9a42&#45;ffbbcf66070c -->
<g id="edge5" class="edge">
<title>cab4b5e9&#45;9d6f&#45;4763&#45;b815&#45;1de04a50826e&#45;&gt;f2e5e248&#45;389d&#45;4e44&#45;9a42&#45;ffbbcf66070c</title>
<path fill="none" stroke="black" d="M676.8,-255.76C673.37,-250.22 668.81,-244.38 663.2,-240.58 592.61,-192.75 487.4,-184.61 440.4,-183.49"/>
<polygon fill="black" stroke="black" points="440.57,-179.99 430.52,-183.35 440.47,-186.99 440.57,-179.99"/>
</g>
<!-- 92cf2023&#45;930b&#45;4e6d&#45;8a42&#45;769076b47513 -->
<g id="node11" class="node">
<title>92cf2023&#45;930b&#45;4e6d&#45;8a42&#45;769076b47513</title>
<polygon fill="#ff8080" stroke="black" points="702.32,-198.11 666.07,-198.11 666.07,-166.86 702.32,-166.86 702.32,-198.11"/>
<text text-anchor="middle" x="684.2" y="-175.11" font-family="Times New Roman,serif" font-size="20.00">→</text>
</g>
<!-- cab4b5e9&#45;9d6f&#45;4763&#45;b815&#45;1de04a50826e&#45;&gt;92cf2023&#45;930b&#45;4e6d&#45;8a42&#45;769076b47513 -->
<g id="edge10" class="edge">
<title>cab4b5e9&#45;9d6f&#45;4763&#45;b815&#45;1de04a50826e&#45;&gt;92cf2023&#45;930b&#45;4e6d&#45;8a42&#45;769076b47513</title>
<path fill="none" stroke="black" d="M684.2,-256.02C684.2,-243.34 684.2,-224.8 684.2,-209.64"/>
<polygon fill="black" stroke="black" points="687.7,-209.89 684.2,-199.89 680.7,-209.89 687.7,-209.89"/>
</g>
<!-- 94e6b02c&#45;7e35&#45;492a&#45;87da&#45;1e1a96d76583 -->
<g id="node7" class="node">
<title>94e6b02c&#45;7e35&#45;492a&#45;87da&#45;1e1a96d76583</title>
<polygon fill="#ff8080" stroke="black" points="262.32,-117.92 226.07,-117.92 226.07,-86.67 262.32,-86.67 262.32,-117.92"/>
<text text-anchor="middle" x="244.2" y="-94.92" font-family="Times New Roman,serif" font-size="20.00">→</text>
</g>
<!-- f2e5e248&#45;389d&#45;4e44&#45;9a42&#45;ffbbcf66070c&#45;&gt;94e6b02c&#45;7e35&#45;492a&#45;87da&#45;1e1a96d76583 -->
<g id="edge6" class="edge">
<title>f2e5e248&#45;389d&#45;4e44&#45;9a42&#45;ffbbcf66070c&#45;&gt;94e6b02c&#45;7e35&#45;492a&#45;87da&#45;1e1a96d76583</title>
<path fill="none" stroke="black" d="M403.22,-177.76C378.69,-170.45 323.93,-152.8 271.71,-123.87"/>
<polygon fill="black" stroke="black" points="273.73,-121 263.31,-119.09 270.27,-127.08 273.73,-121"/>
</g>
<!-- 65ca322f&#45;b984&#45;4204&#45;9976&#45;1fe3a3507062 -->
<g id="node10" class="node">
<title>65ca322f&#45;b984&#45;4204&#45;9976&#45;1fe3a3507062</title>
<polygon fill="lightgreen" stroke="black" points="552.07,-120.29 280.32,-120.29 280.32,-84.29 552.07,-84.29 552.07,-120.29"/>
<text text-anchor="middle" x="416.2" y="-94.92" font-family="Times New Roman,serif" font-size="20.00">PutDown(Anything,Anywhere)</text>
</g>
<!-- f2e5e248&#45;389d&#45;4e44&#45;9a42&#45;ffbbcf66070c&#45;&gt;65ca322f&#45;b984&#45;4204&#45;9976&#45;1fe3a3507062 -->
<g id="edge9" class="edge">
<title>f2e5e248&#45;389d&#45;4e44&#45;9a42&#45;ffbbcf66070c&#45;&gt;65ca322f&#45;b984&#45;4204&#45;9976&#45;1fe3a3507062</title>
<path fill="none" stroke="black" d="M416.2,-166.41C416.2,-156.73 416.2,-143.83 416.2,-132.22"/>
<polygon fill="black" stroke="black" points="419.7,-132.29 416.2,-122.29 412.7,-132.29 419.7,-132.29"/>
</g>
<!-- fcb227e5&#45;b4a1&#45;4bc7&#45;9102&#45;99c08e739015 -->
<g id="node8" class="node">
<title>fcb227e5&#45;b4a1&#45;4bc7&#45;9102&#45;99c08e739015</title>
<ellipse fill="#ffff80" stroke="black" cx="114.2" cy="-22.1" rx="114.2" ry="22.1"/>
<text text-anchor="middle" x="114.2" y="-14.72" font-family="Times New Roman,serif" font-size="20.00">Holding(Nothing)</text>
</g>
<!-- 94e6b02c&#45;7e35&#45;492a&#45;87da&#45;1e1a96d76583&#45;&gt;fcb227e5&#45;b4a1&#45;4bc7&#45;9102&#45;99c08e739015 -->
<g id="edge7" class="edge">
<title>94e6b02c&#45;7e35&#45;492a&#45;87da&#45;1e1a96d76583&#45;&gt;fcb227e5&#45;b4a1&#45;4bc7&#45;9102&#45;99c08e739015</title>
<path fill="none" stroke="black" d="M225.85,-90.25C208.27,-79.68 181.08,-63.32 157.93,-49.4"/>
<polygon fill="black" stroke="black" points="159.96,-46.54 149.59,-44.39 156.36,-52.54 159.96,-46.54"/>
</g>
<!-- 6833e1b5&#45;3b7c&#45;4307&#45;a8e3&#45;a6530b06a1c8 -->
<g id="node9" class="node">
<title>6833e1b5&#45;3b7c&#45;4307&#45;a8e3&#45;a6530b06a1c8</title>
<polygon fill="lightgreen" stroke="black" points="501.82,-40.1 246.57,-40.1 246.57,-4.1 501.82,-4.1 501.82,-40.1"/>
<text text-anchor="middle" x="374.2" y="-14.72" font-family="Times New Roman,serif" font-size="20.00">Turn(ACTemperature,Down)</text>
</g>
<!-- 94e6b02c&#45;7e35&#45;492a&#45;87da&#45;1e1a96d76583&#45;&gt;6833e1b5&#45;3b7c&#45;4307&#45;a8e3&#45;a6530b06a1c8 -->
<g id="edge8" class="edge">
<title>94e6b02c&#45;7e35&#45;492a&#45;87da&#45;1e1a96d76583&#45;&gt;6833e1b5&#45;3b7c&#45;4307&#45;a8e3&#45;a6530b06a1c8</title>
<path fill="none" stroke="black" d="M262.5,-86.37C265.36,-84.22 268.32,-82.1 271.2,-80.19 289.75,-67.91 311.15,-55.75 329.62,-45.83"/>
<polygon fill="black" stroke="black" points="331.01,-49.05 338.2,-41.27 327.73,-42.87 331.01,-49.05"/>
</g>
<!-- 0b93f46d&#45;ea6a&#45;415a&#45;af8b&#45;b0018ca610b8 -->
<g id="node12" class="node">
<title>0b93f46d&#45;ea6a&#45;415a&#45;af8b&#45;b0018ca610b8</title>
<ellipse fill="#ffff80" stroke="black" cx="684.2" cy="-102.29" rx="114.2" ry="22.1"/>
<text text-anchor="middle" x="684.2" y="-94.92" font-family="Times New Roman,serif" font-size="20.00">Holding(Nothing)</text>
</g>
<!-- 92cf2023&#45;930b&#45;4e6d&#45;8a42&#45;769076b47513&#45;&gt;0b93f46d&#45;ea6a&#45;415a&#45;af8b&#45;b0018ca610b8 -->
<g id="edge11" class="edge">
<title>92cf2023&#45;930b&#45;4e6d&#45;8a42&#45;769076b47513&#45;&gt;0b93f46d&#45;ea6a&#45;415a&#45;af8b&#45;b0018ca610b8</title>
<path fill="none" stroke="black" d="M684.2,-166.41C684.2,-157.83 684.2,-146.74 684.2,-136.25"/>
<polygon fill="black" stroke="black" points="687.7,-136.34 684.2,-126.34 680.7,-136.34 687.7,-136.34"/>
</g>
<!-- 9d8417b0&#45;3ff7&#45;4263&#45;a155&#45;38688deab010 -->
<g id="node13" class="node">
<title>9d8417b0&#45;3ff7&#45;4263&#45;a155&#45;38688deab010</title>
<polygon fill="lightgreen" stroke="black" points="1071.82,-120.29 816.57,-120.29 816.57,-84.29 1071.82,-84.29 1071.82,-120.29"/>
<text text-anchor="middle" x="944.2" y="-94.92" font-family="Times New Roman,serif" font-size="20.00">Turn(ACTemperature,Down)</text>
</g>
<!-- 92cf2023&#45;930b&#45;4e6d&#45;8a42&#45;769076b47513&#45;&gt;9d8417b0&#45;3ff7&#45;4263&#45;a155&#45;38688deab010 -->
<g id="edge12" class="edge">
<title>92cf2023&#45;930b&#45;4e6d&#45;8a42&#45;769076b47513&#45;&gt;9d8417b0&#45;3ff7&#45;4263&#45;a155&#45;38688deab010</title>
<path fill="none" stroke="black" d="M701.2,-166.49C704.37,-164.2 707.77,-162.05 711.2,-160.39 745.24,-143.87 784.46,-131.88 820.91,-123.29"/>
<polygon fill="black" stroke="black" points="821.67,-126.71 830.64,-121.07 820.11,-119.89 821.67,-126.71"/>
</g>
<!-- dea9be3c&#45;83b9&#45;4ba4&#45;9587&#45;18f20e1f7c61 -->
<g id="node15" class="node">
<title>dea9be3c&#45;83b9&#45;4ba4&#45;9587&#45;18f20e1f7c61</title>
<polygon fill="orange" stroke="black" points="770.2,-303.08 743.2,-271.83 770.2,-240.58 797.2,-271.83 770.2,-303.08"/>
<text text-anchor="middle" x="770.2" y="-264.46" font-family="Times New Roman,serif" font-size="20.00">!</text>
</g>
<!-- 4cfb5477&#45;a90b&#45;4577&#45;b25d&#45;fe21ea0e0966&#45;&gt;dea9be3c&#45;83b9&#45;4ba4&#45;9587&#45;18f20e1f7c61 -->
<g id="edge14" class="edge">
<title>4cfb5477&#45;a90b&#45;4577&#45;b25d&#45;fe21ea0e0966&#45;&gt;dea9be3c&#45;83b9&#45;4ba4&#45;9587&#45;18f20e1f7c61</title>
<path fill="none" stroke="black" d="M835.8,-345.36C823.54,-331.81 805.21,-311.55 791.04,-295.88"/>
<polygon fill="black" stroke="black" points="793.98,-293.91 784.68,-288.84 788.79,-298.61 793.98,-293.91"/>
</g>
<!-- 5d91558e&#45;f484&#45;4ddd&#45;8a10&#45;1df902b94e03 -->
<g id="node17" class="node">
<title>5d91558e&#45;f484&#45;4ddd&#45;8a10&#45;1df902b94e03</title>
<ellipse fill="#ffff80" stroke="black" cx="929.2" cy="-271.83" rx="114.2" ry="22.1"/>
<text text-anchor="middle" x="929.2" y="-264.46" font-family="Times New Roman,serif" font-size="20.00">Holding(Nothing)</text>
</g>
<!-- 4cfb5477&#45;a90b&#45;4577&#45;b25d&#45;fe21ea0e0966&#45;&gt;5d91558e&#45;f484&#45;4ddd&#45;8a10&#45;1df902b94e03 -->
<g id="edge16" class="edge">
<title>4cfb5477&#45;a90b&#45;4577&#45;b25d&#45;fe21ea0e0966&#45;&gt;5d91558e&#45;f484&#45;4ddd&#45;8a10&#45;1df902b94e03</title>
<path fill="none" stroke="black" d="M862.77,-345.36C873.58,-333.56 889.04,-316.68 902.33,-302.17"/>
<polygon fill="black" stroke="black" points="904.66,-304.81 908.83,-295.07 899.5,-300.08 904.66,-304.81"/>
</g>
<!-- 1e56321e&#45;c13c&#45;43fe&#45;9301&#45;8d4421bd0dad -->
<g id="node18" class="node">
<title>1e56321e&#45;c13c&#45;43fe&#45;9301&#45;8d4421bd0dad</title>
<polygon fill="lightgreen" stroke="black" points="1188.7,-289.83 1061.7,-289.83 1061.7,-253.83 1188.7,-253.83 1188.7,-289.83"/>
<text text-anchor="middle" x="1125.2" y="-264.46" font-family="Times New Roman,serif" font-size="20.00">Turn(AC,On)</text>
</g>
<!-- 4cfb5477&#45;a90b&#45;4577&#45;b25d&#45;fe21ea0e0966&#45;&gt;1e56321e&#45;c13c&#45;43fe&#45;9301&#45;8d4421bd0dad -->
<g id="edge17" class="edge">
<title>4cfb5477&#45;a90b&#45;4577&#45;b25d&#45;fe21ea0e0966&#45;&gt;1e56321e&#45;c13c&#45;43fe&#45;9301&#45;8d4421bd0dad</title>
<path fill="none" stroke="black" d="M867.62,-355.78C903.53,-347.03 985.26,-326.27 1052.2,-303.08 1059.69,-300.49 1067.51,-297.52 1075.14,-294.49"/>
<polygon fill="black" stroke="black" points="1076.4,-297.76 1084.34,-290.75 1073.76,-291.27 1076.4,-297.76"/>
</g>
<!-- e02c2d3d&#45;c61c&#45;45ab&#45;95c4&#45;6e1f00ad5a09 -->
<g id="node16" class="node">
<title>e02c2d3d&#45;c61c&#45;45ab&#45;95c4&#45;6e1f00ad5a09</title>
<ellipse fill="#ffff80" stroke="black" cx="798.2" cy="-182.49" rx="77.6" ry="22.1"/>
<text text-anchor="middle" x="798.2" y="-175.11" font-family="Times New Roman,serif" font-size="20.00">Active(AC)</text>
</g>
<!-- dea9be3c&#45;83b9&#45;4ba4&#45;9587&#45;18f20e1f7c61&#45;&gt;e02c2d3d&#45;c61c&#45;45ab&#45;95c4&#45;6e1f00ad5a09 -->
<g id="edge15" class="edge">
<title>dea9be3c&#45;83b9&#45;4ba4&#45;9587&#45;18f20e1f7c61&#45;&gt;e02c2d3d&#45;c61c&#45;45ab&#45;95c4&#45;6e1f00ad5a09</title>
<path fill="none" stroke="black" d="M777.41,-248.34C780.61,-238.36 784.43,-226.43 787.92,-215.55"/>
<polygon fill="black" stroke="black" points="791.22,-216.73 790.93,-206.14 784.55,-214.6 791.22,-216.73"/>
</g>
</g>
</svg>
